<svg width="1618" height="570" viewBox="0 0 1618 570" fill="none" xmlns="http://www.w3.org/2000/svg">
<path fill-rule="evenodd" clip-rule="evenodd" d="M280.726 1V569V1Z" fill="#D8D8D8"/>
<path d="M280.726 1V569" stroke="white" stroke-width="1.5" stroke-linecap="round" stroke-linejoin="round"/>
<path fill-rule="evenodd" clip-rule="evenodd" d="M310.911 60.1667V509.833V60.1667Z" fill="#D8D8D8"/>
<path d="M310.911 60.1667V509.833" stroke="white" stroke-width="1.5" stroke-linecap="round" stroke-linejoin="round"/>
<path fill-rule="evenodd" clip-rule="evenodd" d="M341.097 83.8334V486.167V83.8334Z" fill="#D8D8D8"/>
<path d="M341.097 83.8334V486.167" stroke="white" stroke-width="1.5" stroke-linecap="round" stroke-linejoin="round"/>
<path fill-rule="evenodd" clip-rule="evenodd" d="M371.283 36.5V533.5V36.5Z" fill="#D8D8D8"/>
<path d="M371.283 36.5V533.5" stroke="white" stroke-width="1.5" stroke-linecap="round" stroke-linejoin="round"/>
<path fill-rule="evenodd" clip-rule="evenodd" d="M401.469 12.8334V557.167V12.8334Z" fill="#D8D8D8"/>
<path d="M401.469 12.8334V557.167" stroke="white" stroke-width="1.5" stroke-linecap="round" stroke-linejoin="round"/>
<path fill-rule="evenodd" clip-rule="evenodd" d="M431.655 107.319V462.319V107.319Z" fill="#D8D8D8"/>
<path d="M431.655 107.319V462.319" stroke="white" stroke-width="1.5" stroke-linecap="round" stroke-linejoin="round"/>
<path fill-rule="evenodd" clip-rule="evenodd" d="M461.839 166.485V403.152V166.485Z" fill="#D8D8D8"/>
<path d="M461.839 166.485V403.152" stroke="white" stroke-width="1.5" stroke-linecap="round" stroke-linejoin="round"/>
<path fill-rule="evenodd" clip-rule="evenodd" d="M492.025 142.819V438.652V142.819Z" fill="#D8D8D8"/>
<path d="M492.025 142.819V438.653" stroke="white" stroke-width="1.5" stroke-linecap="round" stroke-linejoin="round"/>
<path fill-rule="evenodd" clip-rule="evenodd" d="M522.211 201.985V379.485V201.985Z" fill="#D8D8D8"/>
<path d="M522.211 201.985V379.485" stroke="white" stroke-width="1.5" stroke-linecap="round" stroke-linejoin="round"/>
<path fill-rule="evenodd" clip-rule="evenodd" d="M552.397 225.653V343.986V225.653Z" fill="#D8D8D8"/>
<path d="M552.397 225.653V343.986" stroke="white" stroke-width="1.5" stroke-linecap="round" stroke-linejoin="round"/>
<path fill-rule="evenodd" clip-rule="evenodd" d="M582.582 178.319V391.319V178.319Z" fill="#D8D8D8"/>
<path d="M582.582 178.319V391.319" stroke="white" stroke-width="1.5" stroke-linecap="round" stroke-linejoin="round"/>
<path fill-rule="evenodd" clip-rule="evenodd" d="M612.767 154.652V426.819V154.652Z" fill="#D8D8D8"/>
<path d="M612.767 154.652V426.819" stroke="white" stroke-width="1.5" stroke-linecap="round" stroke-linejoin="round"/>
<path fill-rule="evenodd" clip-rule="evenodd" d="M642.953 190.153V391.319V190.153Z" fill="#D8D8D8"/>
<path d="M642.953 190.153V391.319" stroke="white" stroke-width="1.5" stroke-linecap="round" stroke-linejoin="round"/>
<path fill-rule="evenodd" clip-rule="evenodd" d="M673.139 190.153V391.319V190.153Z" fill="#D8D8D8"/>
<path d="M673.139 190.153V391.319" stroke="white" stroke-width="1.5" stroke-linecap="round" stroke-linejoin="round"/>
<g opacity="0.5">
<path fill-rule="evenodd" clip-rule="evenodd" d="M1131.96 96.7976V473.269V96.7976Z" fill="#D8D8D8"/>
<path d="M1131.96 96.7976V473.269" stroke="white" stroke-width="1.5" stroke-linecap="round" stroke-linejoin="round"/>
</g>
<g opacity="0.5">
<path fill-rule="evenodd" clip-rule="evenodd" d="M1162.15 49.7385V520.328V49.7385Z" fill="#D8D8D8"/>
<path d="M1162.15 49.7385V520.328" stroke="white" stroke-width="1.5" stroke-linecap="round" stroke-linejoin="round"/>
</g>
<g opacity="0.5">
<path fill-rule="evenodd" clip-rule="evenodd" d="M1192.33 26.209V543.857V26.209Z" fill="#D8D8D8"/>
<path d="M1192.33 26.209V543.857" stroke="white" stroke-width="1.5" stroke-linecap="round" stroke-linejoin="round"/>
</g>
<g opacity="0.5">
<path fill-rule="evenodd" clip-rule="evenodd" d="M1222.52 143.857V426.21V143.857Z" fill="#D8D8D8"/>
<path d="M1222.52 143.857V426.21" stroke="white" stroke-width="1.5" stroke-linecap="round" stroke-linejoin="round"/>
</g>
<g opacity="0.5">
<path fill-rule="evenodd" clip-rule="evenodd" d="M1252.7 167.206V402.501V167.206Z" fill="#D8D8D8"/>
<path d="M1252.7 167.206V402.501" stroke="white" stroke-width="1.5" stroke-linecap="round" stroke-linejoin="round"/>
</g>
<g opacity="0.5">
<path fill-rule="evenodd" clip-rule="evenodd" d="M1282.89 143.676V437.795V143.676Z" fill="#D8D8D8"/>
<path d="M1282.89 143.676V437.795" stroke="white" stroke-width="1.5" stroke-linecap="round" stroke-linejoin="round"/>
</g>
<g opacity="0.5">
<path fill-rule="evenodd" clip-rule="evenodd" d="M1313.07 202.5V378.971V202.5Z" fill="#D8D8D8"/>
<path d="M1313.07 202.5V378.971" stroke="white" stroke-width="1.5" stroke-linecap="round" stroke-linejoin="round"/>
</g>
<g opacity="0.5">
<path fill-rule="evenodd" clip-rule="evenodd" d="M1343.26 226.03V343.677V226.03Z" fill="#D8D8D8"/>
<path d="M1343.26 226.03V343.677" stroke="white" stroke-width="1.5" stroke-linecap="round" stroke-linejoin="round"/>
</g>
<g opacity="0.5">
<path fill-rule="evenodd" clip-rule="evenodd" d="M1373.44 178.97V390.736V178.97Z" fill="#D8D8D8"/>
<path d="M1373.44 178.97V390.736" stroke="white" stroke-width="1.5" stroke-linecap="round" stroke-linejoin="round"/>
</g>
<g opacity="0.5">
<path fill-rule="evenodd" clip-rule="evenodd" d="M1403.63 155.441V426.03V155.441Z" fill="#D8D8D8"/>
<path d="M1403.63 155.441V426.03" stroke="white" stroke-width="1.5" stroke-linecap="round" stroke-linejoin="round"/>
</g>
<g opacity="0.5">
<path fill-rule="evenodd" clip-rule="evenodd" d="M1433.82 190.735V390.736V190.735Z" fill="#D8D8D8"/>
<path d="M1433.82 190.735V390.736" stroke="white" stroke-width="1.5" stroke-linecap="round" stroke-linejoin="round"/>
</g>
<g opacity="0.5">
<path fill-rule="evenodd" clip-rule="evenodd" d="M1464 190.735V390.736V190.735Z" fill="#D8D8D8"/>
<path d="M1464 190.735V390.736" stroke="white" stroke-width="1.5" stroke-linecap="round" stroke-linejoin="round"/>
</g>
<g opacity="0.5">
<path fill-rule="evenodd" clip-rule="evenodd" d="M1095.74 17.8062V560.629V17.8062Z" fill="#D8D8D8"/>
<path d="M1095.74 17.8062V560.629" stroke="white" stroke-width="1.5" stroke-linecap="round" stroke-linejoin="round"/>
</g>
<g opacity="0.5">
<path fill-rule="evenodd" clip-rule="evenodd" d="M1065.55 76.8086V501.626V76.8086Z" fill="#D8D8D8"/>
<path d="M1065.55 76.8086V501.626" stroke="white" stroke-width="1.5" stroke-linecap="round" stroke-linejoin="round"/>
</g>
<g opacity="0.5">
<path fill-rule="evenodd" clip-rule="evenodd" d="M1035.37 100.41V478.025V100.41Z" fill="#D8D8D8"/>
<path d="M1035.37 100.41V478.025" stroke="white" stroke-width="1.5" stroke-linecap="round" stroke-linejoin="round"/>
</g>
<g opacity="0.5">
<path fill-rule="evenodd" clip-rule="evenodd" d="M1005.18 53.2078V525.227V53.2078Z" fill="#D8D8D8"/>
<path d="M1005.18 53.2078V525.227" stroke="white" stroke-width="1.5" stroke-linecap="round" stroke-linejoin="round"/>
</g>
<g opacity="0.5">
<path fill-rule="evenodd" clip-rule="evenodd" d="M974.995 29.6068V548.829V29.6068Z" fill="#D8D8D8"/>
<path d="M974.995 29.6068V548.829" stroke="white" stroke-width="1.5" stroke-linecap="round" stroke-linejoin="round"/>
</g>
<path fill-rule="evenodd" clip-rule="evenodd" d="M944.809 112.03V466.045V112.03Z" fill="#D8D8D8"/>
<path d="M944.809 112.03V466.045" stroke="white" stroke-width="1.5" stroke-linecap="round" stroke-linejoin="round"/>
<path fill-rule="evenodd" clip-rule="evenodd" d="M914.623 171.032V407.042V171.032Z" fill="#D8D8D8"/>
<path d="M914.623 171.032V407.042" stroke="white" stroke-width="1.5" stroke-linecap="round" stroke-linejoin="round"/>
<path fill-rule="evenodd" clip-rule="evenodd" d="M884.438 147.431V442.444V147.431Z" fill="#D8D8D8"/>
<path d="M884.438 147.431V442.444" stroke="white" stroke-width="1.5" stroke-linecap="round" stroke-linejoin="round"/>
<path fill-rule="evenodd" clip-rule="evenodd" d="M854.253 206.434V383.441V206.434Z" fill="#D8D8D8"/>
<path d="M854.253 206.434V383.441" stroke="white" stroke-width="1.5" stroke-linecap="round" stroke-linejoin="round"/>
<path fill-rule="evenodd" clip-rule="evenodd" d="M824.067 230.034V348.039V230.034Z" fill="#D8D8D8"/>
<path d="M824.067 230.034V348.039" stroke="white" stroke-width="1.5" stroke-linecap="round" stroke-linejoin="round"/>
<path fill-rule="evenodd" clip-rule="evenodd" d="M793.881 182.832V395.241V182.832Z" fill="#D8D8D8"/>
<path d="M793.881 182.832V395.241" stroke="white" stroke-width="1.5" stroke-linecap="round" stroke-linejoin="round"/>
<path fill-rule="evenodd" clip-rule="evenodd" d="M763.695 159.231V430.643V159.231Z" fill="#D8D8D8"/>
<path d="M763.695 159.231V430.643" stroke="white" stroke-width="1.5" stroke-linecap="round" stroke-linejoin="round"/>
<path fill-rule="evenodd" clip-rule="evenodd" d="M733.51 135.63V454.244V135.63Z" fill="#D8D8D8"/>
<path d="M733.51 135.63V454.244" stroke="white" stroke-width="1.5" stroke-linecap="round" stroke-linejoin="round"/>
<path fill-rule="evenodd" clip-rule="evenodd" d="M703.325 241.835V348.04V241.835Z" fill="#D8D8D8"/>
<path d="M703.325 241.835V348.04" stroke="white" stroke-width="1.5" stroke-linecap="round" stroke-linejoin="round"/>
<g opacity="0.5">
<path fill-rule="evenodd" clip-rule="evenodd" d="M1614.98 236.114V353.762V236.114Z" fill="#D8D8D8"/>
<path d="M1614.98 236.114V353.762" stroke="white" stroke-width="1.5" stroke-linecap="round" stroke-linejoin="round"/>
</g>
<g opacity="0.5">
<path fill-rule="evenodd" clip-rule="evenodd" d="M1584.8 189.055V400.82V189.055Z" fill="#D8D8D8"/>
<path d="M1584.8 189.055V400.82" stroke="white" stroke-width="1.5" stroke-linecap="round" stroke-linejoin="round"/>
</g>
<g opacity="0.5">
<path fill-rule="evenodd" clip-rule="evenodd" d="M1554.61 165.526V436.114V165.526Z" fill="#D8D8D8"/>
<path d="M1554.61 165.526V436.114" stroke="white" stroke-width="1.5" stroke-linecap="round" stroke-linejoin="round"/>
</g>
<g opacity="0.5">
<path fill-rule="evenodd" clip-rule="evenodd" d="M1524.42 141.996V459.644V141.996Z" fill="#D8D8D8"/>
<path d="M1524.42 141.996V459.644" stroke="white" stroke-width="1.5" stroke-linecap="round" stroke-linejoin="round"/>
</g>
<g opacity="0.5">
<path fill-rule="evenodd" clip-rule="evenodd" d="M1494.24 247.879V353.762V247.879Z" fill="#D8D8D8"/>
<path d="M1494.24 247.879V353.762" stroke="white" stroke-width="1.5" stroke-linecap="round" stroke-linejoin="round"/>
</g>
<path fill-rule="evenodd" clip-rule="evenodd" d="M244.503 118.466V471.408V118.466Z" fill="#D8D8D8"/>
<path d="M244.503 118.466V471.408" stroke="white" stroke-width="1.5" stroke-linecap="round" stroke-linejoin="round"/>
<path fill-rule="evenodd" clip-rule="evenodd" d="M214.318 177.29V412.584V177.29Z" fill="#D8D8D8"/>
<path d="M214.318 177.29V412.584" stroke="white" stroke-width="1.5" stroke-linecap="round" stroke-linejoin="round"/>
<path fill-rule="evenodd" clip-rule="evenodd" d="M184.132 153.76V447.878V153.76Z" fill="#D8D8D8"/>
<path d="M184.132 153.76V447.878" stroke="white" stroke-width="1.5" stroke-linecap="round" stroke-linejoin="round"/>
<path fill-rule="evenodd" clip-rule="evenodd" d="M153.947 212.584V389.055V212.584Z" fill="#D8D8D8"/>
<path d="M153.947 212.584V389.055" stroke="white" stroke-width="1.5" stroke-linecap="round" stroke-linejoin="round"/>
<path fill-rule="evenodd" clip-rule="evenodd" d="M123.761 236.113V353.761V236.113Z" fill="#D8D8D8"/>
<path d="M123.761 236.113V353.761" stroke="white" stroke-width="1.5" stroke-linecap="round" stroke-linejoin="round"/>
<path fill-rule="evenodd" clip-rule="evenodd" d="M93.5752 189.054V400.819V189.054Z" fill="#D8D8D8"/>
<path d="M93.5752 189.054V400.819" stroke="white" stroke-width="1.5" stroke-linecap="round" stroke-linejoin="round"/>
<path fill-rule="evenodd" clip-rule="evenodd" d="M63.3896 165.525V436.114V165.525Z" fill="#D8D8D8"/>
<path d="M63.3896 165.525V436.114" stroke="white" stroke-width="1.5" stroke-linecap="round" stroke-linejoin="round"/>
<path fill-rule="evenodd" clip-rule="evenodd" d="M33.2041 141.995V459.643V141.995Z" fill="#D8D8D8"/>
<path d="M33.2041 141.995V459.643" stroke="white" stroke-width="1.5" stroke-linecap="round" stroke-linejoin="round"/>
<path fill-rule="evenodd" clip-rule="evenodd" d="M3.01855 247.878V353.761V247.878Z" fill="#D8D8D8"/>
<path d="M3.01855 247.878V353.761" stroke="white" stroke-width="1.5" stroke-linecap="round" stroke-linejoin="round"/>
</svg>
